<svg xmlns="http://www.w3.org/2000/svg" xmlns:xlink="http://www.w3.org/1999/xlink" version="1.1" x="0px" y="0px" viewBox="7.5 7.5 50 62.5" enable-background="new 7.5 7.5 50 50" xml:space="preserve"><path d="M26.498,31.09l-2.554-0.371l-1.143-2.315c-0.168-0.342-0.729-0.342-0.896,0l-1.143,2.315l-2.554,0.371  c-0.188,0.027-0.345,0.159-0.404,0.34c-0.059,0.181-0.01,0.38,0.126,0.513l1.849,1.803l-0.437,2.543  c-0.032,0.188,0.045,0.378,0.199,0.489c0.154,0.112,0.359,0.128,0.527,0.038l2.285-1.201l2.285,1.201  c0.073,0.039,0.153,0.058,0.233,0.058c0.104,0,0.207-0.032,0.294-0.096c0.154-0.111,0.231-0.302,0.199-0.489l-0.437-2.543  l1.849-1.803c0.136-0.133,0.185-0.332,0.126-0.513C26.842,31.25,26.686,31.118,26.498,31.09z"/><path d="M16.351,31.091l-2.555-0.372l-1.143-2.315c-0.168-0.342-0.729-0.342-0.896,0l-1.143,2.315L8.06,31.091  c-0.188,0.027-0.345,0.159-0.404,0.34c-0.059,0.181-0.01,0.379,0.126,0.512l1.848,1.801L9.195,36.29  c-0.032,0.188,0.045,0.377,0.199,0.488c0.155,0.112,0.359,0.128,0.527,0.038l2.285-1.201l2.285,1.201  c0.073,0.039,0.153,0.058,0.233,0.058c0.104,0,0.207-0.032,0.294-0.096c0.154-0.111,0.231-0.301,0.199-0.488l-0.436-2.545  l1.849-1.801c0.136-0.133,0.185-0.332,0.126-0.513S16.54,31.119,16.351,31.091z"/><path d="M57.344,31.432c-0.059-0.181-0.215-0.313-0.403-0.34l-2.555-0.372l-1.143-2.315c-0.168-0.342-0.729-0.342-0.896,0  l-1.143,2.315l-2.556,0.372c-0.188,0.027-0.345,0.159-0.403,0.34s-0.01,0.38,0.127,0.513l1.849,1.801l-0.438,2.544  c-0.032,0.188,0.045,0.378,0.199,0.489c0.087,0.063,0.19,0.096,0.294,0.096c0.08,0,0.159-0.019,0.232-0.058l2.286-1.202l2.285,1.202  c0.168,0.09,0.372,0.074,0.526-0.038c0.154-0.111,0.231-0.302,0.199-0.489l-0.438-2.544l1.849-1.801  C57.354,31.812,57.402,31.613,57.344,31.432z"/><path d="M46.793,31.091l-2.556-0.372l-1.143-2.315c-0.084-0.171-0.258-0.279-0.448-0.279s-0.364,0.108-0.448,0.279l-1.144,2.315  l-2.554,0.372c-0.188,0.027-0.345,0.159-0.403,0.34c-0.059,0.181-0.01,0.379,0.127,0.512l1.848,1.801l-0.437,2.545  c-0.032,0.188,0.045,0.377,0.199,0.488c0.087,0.063,0.19,0.096,0.294,0.096c0.08,0,0.159-0.019,0.232-0.058l2.285-1.201l2.284,1.201  c0.168,0.09,0.372,0.074,0.526-0.038c0.153-0.111,0.231-0.301,0.199-0.488l-0.436-2.545l1.849-1.801  c0.137-0.133,0.186-0.332,0.127-0.513S46.981,31.119,46.793,31.091z"/><path d="M36.646,31.091l-2.555-0.372l-1.144-2.315c-0.168-0.342-0.729-0.342-0.896,0l-1.143,2.315l-2.554,0.372  c-0.188,0.027-0.345,0.159-0.404,0.34c-0.059,0.181-0.01,0.379,0.126,0.512l1.848,1.801L29.49,36.29  c-0.032,0.188,0.045,0.377,0.199,0.488c0.155,0.112,0.359,0.128,0.527,0.038l2.284-1.201l2.284,1.201  c0.073,0.039,0.152,0.058,0.232,0.058c0.104,0,0.207-0.032,0.294-0.096c0.153-0.111,0.231-0.301,0.199-0.488l-0.436-2.545  l1.849-1.801c0.137-0.133,0.186-0.332,0.127-0.513S36.834,31.119,36.646,31.091z"/><text x="7.5" y="72.5" fill="#000000" font-size="5px" font-weight="bold" font-family="'Helvetica Neue', Helvetica, Arial-Unicode, Arial, Sans-serif">Created by Abd Majd</text><text x="7.5" y="77.5" fill="#000000" font-size="5px" font-weight="bold" font-family="'Helvetica Neue', Helvetica, Arial-Unicode, Arial, Sans-serif">from the Noun Project</text></svg>